<?xml version="1.0" encoding="utf-8"?>
<!-- Uploaded to: SVG Repo, www.svgrepo.com, Generator: SVG Repo Mixer Tools -->
<svg width="800px" height="800px" viewBox="0 0 24 24" fill="none" xmlns="http://www.w3.org/2000/svg">
<g id="style=fill">
<g id="eye-close">
<path id="vector" d="M15.6487 5.39465C14.4859 4.95229 13.2582 4.71997 12 4.71997C8.46997 4.71997 5.17997 6.54861 2.88997 9.71356C1.98997 10.9532 1.98997 13.0368 2.88997 14.2764C3.34474 14.9049 3.83895 15.4807 4.36664 16M19.3248 7.69629C19.9692 8.2894 20.5676 8.96401 21.11 9.71356C22.01 10.9532 22.01 13.0368 21.11 14.2764C18.82 17.4413 15.53 19.27 12 19.27C10.6143 19.27 9.26561 18.9882 7.99988 18.4544" stroke="#000000" stroke-width="1.5" stroke-linecap="round" stroke-linejoin="round"/>
<path id="Subtract" fill-rule="evenodd" clip-rule="evenodd" d="M17.742 5.57955C15.9962 4.53817 14.0413 3.96997 11.9998 3.96997C8.19594 3.96997 4.69275 5.94267 2.28258 9.27342C1.72076 10.0475 1.46484 11.0419 1.46484 11.995C1.46484 12.9478 1.72065 13.942 2.28222 14.716C3.02992 15.7494 3.88282 16.6521 4.81727 17.4057L8.72514 13.83C8.42248 13.2886 8.25 12.664 8.25 12C8.25 9.92657 9.92657 8.25 12 8.25C12.7834 8.25 13.5113 8.48997 14.1129 8.90023L17.742 5.57955ZM6.0677 18.2947C7.86114 19.4096 9.88397 20.02 11.9998 20.02C15.8037 20.02 19.3069 18.0473 21.7171 14.7165C22.2789 13.9424 22.5348 12.948 22.5348 11.995C22.5348 11.0421 22.279 10.0479 21.7175 9.27392C20.9248 8.17837 20.0139 7.22973 19.0129 6.44988L6.0677 18.2947ZM15 11.25C15.4142 11.25 15.75 11.5858 15.75 12C15.75 14.0734 14.0734 15.75 12 15.75C11.5858 15.75 11.25 15.4142 11.25 15C11.25 14.5858 11.5858 14.25 12 14.25C13.245 14.25 14.25 13.245 14.25 12C14.25 11.5858 14.5858 11.25 15 11.25Z" fill="#000000"/>
<path id="vector (Stroke)" fill-rule="evenodd" clip-rule="evenodd" d="M22.5533 2.19366C22.8329 2.49926 22.8119 2.97366 22.5063 3.25328L19.3012 6.18591C18.9956 6.46553 18.5212 6.44447 18.2416 6.13888C17.962 5.83329 17.9831 5.35888 18.2886 5.07926L21.4937 2.14663C21.7993 1.86701 22.2737 1.88807 22.5533 2.19366ZM5.73136 17.5857C6.01098 17.8913 5.98992 18.3657 5.68433 18.6454L2.5063 21.5533C2.2007 21.8329 1.7263 21.8118 1.44668 21.5062C1.16706 21.2006 1.18812 20.7262 1.49371 20.4466L4.67175 17.5387C4.97734 17.2591 5.45175 17.2801 5.73136 17.5857Z" fill="#000000"/>
</g>
</g>
</svg>